<svg width="25" height="30" viewBox="0 0 25 30" fill="none" xmlns="http://www.w3.org/2000/svg">
<g clip-path="url(#clip0_1746_1011)">
<path d="M12.5057 8.26172C8.95663 8.26172 6.09391 11.2676 6.09391 14.9941C6.09391 18.7207 8.95663 21.7266 12.5057 21.7266C16.0548 21.7266 18.9176 18.7207 18.9176 14.9941C18.9176 11.2676 16.0548 8.26172 12.5057 8.26172ZM12.5057 19.3711C10.2122 19.3711 8.33721 17.4082 8.33721 14.9941C8.33721 12.5801 10.2066 10.6172 12.5057 10.6172C14.8048 10.6172 16.6743 12.5801 16.6743 14.9941C16.6743 17.4082 14.7993 19.3711 12.5057 19.3711ZM20.6754 7.98633C20.6754 8.85938 20.0057 9.55664 19.1798 9.55664C18.3484 9.55664 17.6843 8.85352 17.6843 7.98633C17.6843 7.11914 18.354 6.41602 19.1798 6.41602C20.0057 6.41602 20.6754 7.11914 20.6754 7.98633ZM24.922 9.58008C24.8272 7.47656 24.3696 5.61328 22.9019 4.07812C21.4399 2.54297 19.6653 2.0625 17.662 1.95703C15.5973 1.83398 9.40864 1.83398 7.34391 1.95703C5.34614 2.05664 3.57159 2.53711 2.10395 4.07227C0.636318 5.60742 0.184309 7.4707 0.0838623 9.57422C-0.0333252 11.7422 -0.0333252 18.2402 0.0838623 20.4082C0.178728 22.5117 0.636318 24.375 2.10395 25.9102C3.57159 27.4453 5.34056 27.9258 7.34391 28.0312C9.40864 28.1543 15.5973 28.1543 17.662 28.0312C19.6653 27.9316 21.4399 27.4512 22.9019 25.9102C24.364 24.375 24.8216 22.5117 24.922 20.4082C25.0392 18.2402 25.0392 11.748 24.922 9.58008ZM22.2546 22.7344C21.8194 23.8828 20.9767 24.7676 19.8774 25.2305C18.2312 25.916 14.3249 25.7578 12.5057 25.7578C10.6865 25.7578 6.77471 25.9102 5.13409 25.2305C4.04034 24.7734 3.1977 23.8887 2.75685 22.7344C2.10395 21.0059 2.25462 16.9043 2.25462 14.9941C2.25462 13.084 2.10953 8.97656 2.75685 7.25391C3.19212 6.10547 4.03476 5.2207 5.13409 4.75781C6.78029 4.07227 10.6865 4.23047 12.5057 4.23047C14.3249 4.23047 18.2368 4.07812 19.8774 4.75781C20.9711 5.21484 21.8138 6.09961 22.2546 7.25391C22.9075 8.98242 22.7569 13.084 22.7569 14.9941C22.7569 16.9043 22.9075 21.0117 22.2546 22.7344Z" fill="black"/>
</g>
<defs>
<clipPath id="clip0_1746_1011">
<rect width="25" height="30" fill="white"/>
</clipPath>
</defs>
</svg>
